HIERARCHY
ROOT Hips
{
	OFFSET 0.00000 0.00000 0.00000
	CHANNELS 6 Xposition Yposition Zposition Zrotation Yrotation Xrotation 
	JOINT LHipJoint
	{
		OFFSET 0 0 0
		CHANNELS 3 Zrotation Yrotation Xrotation
		JOINT LeftHip
		{
			OFFSET 1.40252 -1.71424 0.59123
			CHANNELS 3 Zrotation Yrotation Xrotation
			JOINT LeftKnee
			{
				OFFSET 2.50071 -6.87065 0.00000
				CHANNELS 3 Zrotation Yrotation Xrotation
				JOINT LeftAnkle
				{
					OFFSET 2.50834 -6.89162 0.00000
					CHANNELS 3 Zrotation Yrotation Xrotation
					JOINT LeftToe
					{
						OFFSET 0.21528 -0.59149 1.64448
						CHANNELS 3 Zrotation Yrotation Xrotation
						End Site
						{
							OFFSET 0.00000 -0.00000 0.87921
						}
					}
				}
			}
		}
	}
	JOINT RHipJoint
	{
		OFFSET 0 0 0
		CHANNELS 3 Zrotation Yrotation Xrotation
		JOINT RightHip
		{
			OFFSET -1.53651 -1.71424 0.59123
			CHANNELS 3 Zrotation Yrotation Xrotation
			JOINT RightKnee
			{
				OFFSET -2.45783 -6.75285 0.00000
				CHANNELS 3 Zrotation Yrotation Xrotation
				JOINT RightAnkle
				{
					OFFSET -2.51921 -6.92147 0.00000
					CHANNELS 3 Zrotation Yrotation Xrotation
					JOINT RightToe
					{
						OFFSET -0.21777 -0.59831 1.59676
						CHANNELS 3 Zrotation Yrotation Xrotation
						End Site
						{
							OFFSET -0.00000 -0.00000 0.85779
						}
					}
				}
			}
		}
	}
	JOINT lowerback
	{
		OFFSET 0 0 0
		CHANNELS 3 Zrotation Yrotation Xrotation
		JOINT Chest
		{
			OFFSET 0.02212 2.07622 0.03776
			CHANNELS 3 Zrotation Yrotation Xrotation
			JOINT Chest2
			{
				OFFSET -0.00949 2.08009 -0.00123
				CHANNELS 3 Zrotation Yrotation Xrotation
				JOINT lowerneck
				{
					OFFSET 0 0 0
					CHANNELS 3 Zrotation Yrotation Xrotation
					JOINT Neck
					{
						OFFSET 0.00288 1.67184 0.11155
						CHANNELS 3 Zrotation Yrotation Xrotation
						JOINT Head
						{
							OFFSET -0.02412 1.66997 -0.22040
							CHANNELS 3 Zrotation Yrotation Xrotation
							End Site
							{
								OFFSET -0.01026 1.69043 -0.08683
							}
						}
					}
				}
				JOINT LeftCollar
				{
					OFFSET 0 0 0
					CHANNELS 3 Zrotation Yrotation Xrotation
					JOINT LeftShoulder
					{
						OFFSET 3.97941 0.74048 0.81462
CHANNELS 3 Zrotation Xrotation Yrotation
						JOINT LeftElbow
						{
OFFSET 0 -5.018340 -0.000000
CHANNELS 3 Zrotation Xrotation Yrotation
							JOINT LeftWrist
							{
OFFSET 0 -3.486900 0.000000
CHANNELS 3 Zrotation Xrotation Yrotation
								JOINT lhand
								{
									OFFSET 0 0 0
CHANNELS 3 Zrotation Xrotation Yrotation
									JOINT LFingers
									{
OFFSET 0 -0.767990 0.000000
CHANNELS 3 Zrotation Xrotation Yrotation
										End Site
										{
OFFSET 0 -0.619170 0.000000
										}
									}
								}
								JOINT LThumb
								{
OFFSET 0 0.000000 0.000000
CHANNELS 3 Zrotation Xrotation Yrotation
									End Site
									{
OFFSET 0 -0.628630 0.628630
									}
								}
							}
						}
					}
				}
				JOINT RightCollar
				{
					OFFSET 0 0 0
					CHANNELS 3 Zrotation Yrotation Xrotation
					JOINT RightShoulder
					{
						OFFSET -3.88702 1.02123 0.44091
CHANNELS 3 Zrotation Xrotation Yrotation
						JOINT RightElbow
						{
OFFSET 0 -4.701640 0.000000
CHANNELS 3 Zrotation Xrotation Yrotation
							JOINT RightWrist
							{
OFFSET 0 -3.499110 0.000000
CHANNELS 3 Zrotation Xrotation Yrotation
								JOINT rhand
								{
									OFFSET 0 0 0
CHANNELS 3 Zrotation Xrotation Yrotation
									JOINT RFingers
									{
OFFSET 0 -0.739330 0.000000
CHANNELS 3 Zrotation Xrotation Yrotation
										End Site
										{
OFFSET 0 -0.596070 0.000000
										}
									}
								}
								JOINT RThumb
								{
OFFSET 0 0.000000 0.000000
CHANNELS 3 Zrotation Xrotation Yrotation
									End Site
									{
OFFSET 0 -0.605170 0.605170
									}
								}
							}
						}
					}
				}
			}
		}
	}
}
MOTION
Frames: 9
Frame Time: 0.008333333333333333
5.591725 17.139198 -3.798023 1621.265192 -208.751372 -2333.490952 0.000000 0.000000 0.000000 -24.833066 10.924214 -13.847846 3.925254 12.048560 35.919690 1.062106 1.857618 -20.218122 1.112054 -6.699703 -18.828621 0.000000 0.000000 0.000000 25.486035 -3.619178 -25.280486 -1.807988 -8.454066 24.102143 0.322030 -22.038765 -28.815743 -3.424196 -11.351854 33.476065 3.065451 -3.847943 -8.369516 0.040193 -5.385295 -1.279270 -2.243558 -2.641781 3.071852 -2.414811 -5.204390 -6.574585 -4.711860 -5.815519 21.286565 -1.621364 -3.362942 7.556359 0.000000 0.000000 0.000000 19.298957 -8.933447 -27.931418 147.542608 -42.908804 106.948833 21.181987 -58.845041 -59.873340 0.000000 0.000000 0.000000 -7.125000 0.000000 0.000000 -90.948759 -55.862564 -74.503956 0.000000 0.000000 0.000000 -5.091550 22.921248 -5.679171 -137.116354 -49.688436 -99.387963 -6.020341 -36.535227 10.629507 0.000000 0.000000 0.000000 7.125000 0.000000 0.000000 18.310824 39.983685 2.374727
5.943259 17.085560 -3.206529 1618.922437 -197.189169 -2335.081068 0.000000 0.000000 0.000000 -18.316019 16.167943 -31.995535 13.075781 18.788848 69.340937 0.015303 -3.972608 -3.399550 0.723070 -5.384092 -15.019301 0.000000 0.000000 0.000000 28.326155 -0.044312 -19.931973 -1.683841 -8.173504 23.242488 -0.175876 -17.288560 -26.021578 -2.505644 -9.841730 28.471269 5.037619 -3.461651 -7.174721 0.485551 -4.989266 -1.443235 -2.740040 -2.457778 2.131380 -1.131822 -3.289806 -6.116392 -5.164334 -3.304040 21.593937 -1.772914 -2.122622 7.566389 0.000000 0.000000 0.000000 13.051592 4.217378 -23.112181 144.220179 -45.357057 104.633037 21.828227 -52.247177 -60.111903 0.000000 0.000000 0.000000 -7.125000 0.000000 0.000000 -91.531319 -79.220874 -102.529666 0.000000 0.000000 0.000000 -4.880244 28.419485 -16.807668 -129.570298 -53.161016 -93.480609 8.078237 -32.470175 1.304694 0.000000 0.000000 0.000000 7.125000 0.000000 0.000000 26.764882 30.453807 10.577838
6.268347 17.000061 -2.849469 1618.387262 -186.021379 -2335.378331 0.000000 0.000000 0.000000 -11.404542 5.856052 -39.817463 16.666124 19.731054 80.210128 0.029024 0.962414 -3.725641 0.055350 -1.430931 -3.936599 0.000000 0.000000 0.000000 28.409618 3.838037 -19.563886 -2.564471 -9.954018 28.828102 -1.004632 -11.765006 -26.551485 -1.808081 -8.449375 24.090584 5.149861 -3.608771 -6.513781 0.562951 -5.194056 -0.538906 -2.728809 -2.529712 2.681605 -0.362626 -1.799129 -7.005383 -5.435011 -1.331071 21.336340 -1.842374 -1.171212 7.674634 0.000000 0.000000 0.000000 4.234594 9.899297 -27.323645 124.354422 -54.970633 89.240808 26.792375 -39.293433 -58.183762 0.000000 0.000000 0.000000 -7.125000 0.000000 0.000000 -91.922259 -36.487972 -49.222131 0.000000 0.000000 0.000000 -1.069584 29.989832 -18.120222 -116.926732 -57.068430 -83.088944 14.597083 -22.972871 -5.572669 0.000000 0.000000 0.000000 7.125000 0.000000 0.000000 29.402392 23.892491 17.297751
6.538140 16.980885 -2.596208 1618.336661 -174.332930 -2336.876494 0.000000 0.000000 0.000000 -1.869035 -0.286578 -38.204697 11.609642 18.219753 64.744937 0.016941 4.061371 -6.445769 0.231318 3.094193 8.541211 0.000000 0.000000 0.000000 28.025519 6.583792 -16.281650 -2.859061 -10.463230 30.490374 -1.228735 -7.867290 -25.146686 -0.749244 -5.528732 15.422924 4.063027 -4.266912 -3.661733 0.485995 -5.891748 0.762585 -2.082498 -2.879914 2.475571 -0.373268 -0.726904 -8.043540 -6.153319 0.207057 19.713876 -1.931524 -0.504464 7.375049 0.000000 0.000000 0.000000 2.009793 -1.051079 -36.851169 77.399514 -59.388156 49.110285 25.504423 -32.740112 -53.783793 0.000000 0.000000 0.000000 -7.125000 0.000000 0.000000 -68.325314 81.336813 59.971755 0.000000 0.000000 0.000000 2.265377 32.339822 -4.318300 -102.641315 -59.387093 -70.925111 2.599719 -14.492710 -6.447714 0.000000 0.000000 0.000000 7.125000 0.000000 0.000000 21.271161 23.525223 11.823242
6.878678 16.956937 -2.308714 1618.483923 -163.427594 -2335.706861 0.000000 0.000000 0.000000 4.961743 0.491156 -33.725516 4.318100 12.549262 37.739223 0.020970 1.311213 2.475691 0.398222 4.041922 11.195846 0.000000 0.000000 0.000000 26.449770 9.178740 -16.446254 -3.051021 -10.777087 31.531834 -1.376122 -2.924057 -23.386022 -0.090248 -1.918656 5.281345 3.276786 -6.009102 -2.851063 0.446543 -8.140065 0.578140 -1.680479 -4.030003 1.794759 -0.224953 0.592484 -8.736025 -6.792703 2.039327 18.638204 -1.997266 0.320188 7.218429 0.000000 0.000000 0.000000 0.732737 -15.721402 -33.070432 59.576564 -56.194177 33.989416 22.471606 -33.889503 -53.088659 0.000000 0.000000 0.000000 -7.125000 0.000000 0.000000 -63.969116 79.934068 54.467173 0.000000 0.000000 0.000000 1.556520 32.441186 12.412328 -95.933028 -59.866321 -65.135820 -2.932365 -11.345696 -7.011274 0.000000 0.000000 0.000000 7.125000 0.000000 0.000000 17.319450 23.007807 9.604460
7.337027 16.999523 -1.922201 1619.241636 -153.453538 -2335.151402 0.000000 0.000000 0.000000 5.467119 -0.337265 -27.689176 2.278227 9.421161 27.123201 0.218142 7.499174 9.168009 0.289317 3.306138 9.145465 0.000000 0.000000 0.000000 23.515006 13.640008 -16.880949 -3.605475 -11.615767 34.386246 -1.528966 0.835823 -23.138149 -0.005281 -0.414603 1.139396 2.739725 -6.423534 -2.548421 0.288225 -8.651036 0.166149 -1.498501 -4.304744 1.229584 0.788495 1.692053 -8.577147 -7.763976 3.486280 17.830151 -2.350462 1.010441 7.013444 0.000000 0.000000 0.000000 1.995804 -31.593477 -20.972732 43.681822 -50.076326 21.231262 23.824162 -31.659330 -49.904881 0.000000 0.000000 0.000000 -7.125000 0.000000 0.000000 -46.942717 79.265806 38.547562 0.000000 0.000000 0.000000 1.867591 32.645352 22.164446 -97.015581 -59.811994 -66.071777 -9.457964 -13.470310 -9.447517 0.000000 0.000000 0.000000 7.125000 0.000000 0.000000 12.477002 20.502651 7.494694
7.770583 16.982895 -1.497468 1622.456978 -148.417908 -2336.477763 0.000000 0.000000 0.000000 -0.731383 -0.870694 -25.037810 2.396399 9.646948 27.840909 -0.361844 11.970951 1.564076 0.002328 -0.286136 -0.786257 0.000000 0.000000 0.000000 17.628058 13.667575 -19.599671 -4.539950 -12.846099 38.795081 -1.770978 4.384680 -24.144128 -0.014451 0.772965 -2.124302 0.819735 -7.190487 -2.403033 -0.142287 -9.607575 -0.335190 -0.877843 -4.800406 0.830050 0.871097 2.304377 -7.970173 -8.375059 4.315974 16.750588 -2.486163 1.402048 6.614515 0.000000 0.000000 0.000000 7.579582 -42.090035 -13.384304 30.420621 -41.250519 11.686275 20.751971 -29.359128 -49.337476 0.000000 0.000000 0.000000 -7.125000 0.000000 0.000000 -47.038609 77.677899 37.276826 0.000000 0.000000 0.000000 -0.000275 31.643570 30.479653 -102.432732 -59.407332 -70.745567 -18.261482 -18.364744 -9.116974 0.000000 0.000000 0.000000 7.125000 0.000000 0.000000 6.213662 20.414521 3.678272
7.995213 17.004718 -1.301358 1624.173205 -145.990220 -2336.084641 0.000000 0.000000 0.000000 -2.850405 -2.317090 -23.242228 1.998464 8.862670 25.366837 -0.486689 12.699475 -1.108221 0.037874 -1.249824 -3.436570 0.000000 0.000000 0.000000 15.216735 13.230675 -22.460950 -4.884911 -13.252997 40.323078 -1.708582 3.842053 -23.784367 -0.037362 -1.243266 3.418488 0.089332 -6.671117 -2.598968 -0.904325 -8.898674 -0.940257 -1.213435 -4.455225 0.320394 0.339915 1.558882 -7.825455 -7.414837 3.161157 15.959747 -2.175995 0.921819 6.256181 0.000000 0.000000 0.000000 5.416008 -38.213396 -15.484091 31.802439 -42.385671 12.608600 23.671609 -29.168393 -49.801941 0.000000 0.000000 0.000000 -7.125000 0.000000 0.000000 -46.571291 79.149298 38.122953 0.000000 0.000000 0.000000 -0.264986 25.895283 33.060355 -107.506515 -58.809430 -75.100495 -25.217190 -19.761071 -5.298108 0.000000 0.000000 0.000000 7.125000 0.000000 0.000000 1.093979 24.128601 0.554212
8.026821 17.061359 -1.392234 1622.540367 -149.954866 -2334.735676 0.000000 0.000000 0.000000 -1.414368 -4.036279 -24.785036 1.909029 8.673866 24.780461 -0.365218 11.819333 1.151177 0.028760 -1.090286 -2.997310 0.000000 0.000000 0.000000 16.859961 12.631248 -21.557725 -4.312212 -12.563696 37.758006 -1.603620 0.855685 -23.704945 -0.026549 -1.041431 2.862970 1.024073 -6.147012 -1.909339 -0.921791 -8.214198 -0.355965 -1.673550 -4.108823 0.418273 -0.627759 -0.674124 -7.353598 -6.193005 0.022117 15.297941 -1.851345 -0.524579 5.837032 0.000000 0.000000 0.000000 1.113659 -25.233727 -24.105854 44.227147 -50.365212 21.647283 27.857525 -33.448527 -50.117205 0.000000 0.000000 0.000000 -7.125000 0.000000 0.000000 -44.731379 81.138442 38.129658 0.000000 0.000000 0.000000 -1.411560 14.145371 27.701248 -108.142849 -58.717515 -75.644405 -31.071972 -21.918068 -1.720760 0.000000 0.000000 0.000000 7.125000 0.000000 0.000000 -3.471779 27.966067 -1.439180
